# xmcd
#
# Track frame offsets:
# 150
# 16182
# 34410
# 47140
# 61572
# 73175
# 92552
# 108357
# 122687
# 137495
#
# Disc length: 2112 seconds
#
#
# Revision: 0
# Processed by: cddbd v1.4PL0 Copyright (c) Steve Scherf et al.
# Submitted via: FreeRIP 2.30 
#
DISCID=7f083e0a
DTITLE=Angel South - Swamp Doggy Dog
DYEAR=1994
DGENRE=Blues
TTITLE0=The Blues Man
TTITLE1=Heart Shaped Butt
TTITLE2=Smoke! Smoke! Smoke! That Cigarette
TTITLE3=Ain't That the Schitz
TTITLE4=Mean Motha' Fucka'
TTITLE5=Receipt For Playing the Blues
TTITLE6=It Was All I Could Stand (Just to Stand You)
TTITLE7=Table of Love
TTITLE8=Gonna' Get Your Tush
TTITLE9=Drowning in Your Love
EXTD=
EXTT0=
EXTT1=
EXTT2=
EXTT3=
EXTT4=
EXTT5=
EXTT6=
EXTT7=
EXTT8=
EXTT9=
PLAYORDER=
